ply
format ascii 1.0
comment Periodos: [1, 1, 2]
comment Fases: [1, 3, 0]
comment Alcance: 0.023569986135349413
element vertex 1000
property float x
property float y
property float z
element face 0
property list uchar int vertex_indices
element edge 1000
property int32 vertex1 
property int32 vertex2
end_header
-0.5403023059 0.9899924966 1.0000000000
-0.5350045574 0.9908596323 0.9999210442
-0.5296856879 0.9916876506 0.9996841893
-0.5243459073 0.9924765188 0.9992894726
-0.5189854264 0.9932262056 0.9987369566
-0.5136044569 0.9939366816 0.9980267284
-0.5082032112 0.9946079187 0.9971589003
-0.5027819024 0.9952398904 0.9961336091
-0.4973407447 0.9958325717 0.9949510170
-0.4918799528 0.9963859392 0.9936113105
-0.4863997424 0.9968999712 0.9921147013
-0.4809003297 0.9973746472 0.9904614257
-0.4753819319 0.9978099486 0.9886517447
-0.4698447668 0.9982058581 0.9866859442
-0.4642890531 0.9985623602 0.9845643345
-0.4587150100 0.9988794408 0.9822872507
-0.4531228577 0.9991570873 0.9798550524
-0.4475128168 0.9993952888 0.9772681236
-0.4418851089 0.9995940359 0.9745268728
-0.4362399561 0.9997533207 0.9716317329
-0.4305775813 0.9998731370 0.9685831611
-0.4248982081 0.9999534800 0.9653816388
-0.4192020606 0.9999943465 0.9620276716
-0.4134893637 0.9999957350 0.9585217890
-0.4077603430 0.9999576454 0.9548645447
-0.4020152245 0.9998800791 0.9510565163
-0.3962542353 0.9997630393 0.9470983050
-0.3904776025 0.9996065306 0.9429905359
-0.3846855544 0.9994105591 0.9387338577
-0.3788783196 0.9991751326 0.9343289425
-0.3730561273 0.9989002604 0.9297764859
-0.3672192074 0.9985859532 0.9250772068
-0.3613677902 0.9982322237 0.9202318474
-0.3555021069 0.9978390856 0.9152411726
-0.3496223890 0.9974065546 0.9101059707
-0.3437288686 0.9969346476 0.9048270525
-0.3378217784 0.9964233834 0.8994052516
-0.3319013516 0.9958727821 0.8938414242
-0.3259678218 0.9952828654 0.8881364488
-0.3200214234 0.9946536567 0.8822912264
-0.3140623911 0.9939851807 0.8763066800
-0.3080909602 0.9932774639 0.8701837547
-0.3021073663 0.9925305343 0.8639234172
-0.2961118458 0.9917444212 0.8575266562
-0.2901046353 0.9909191557 0.8509944818
-0.2840859719 0.9900547705 0.8443279255
-0.2780560934 0.9891512996 0.8375280400
-0.2720152376 0.9882087787 0.8305958992
-0.2659636431 0.9872272450 0.8235325976
-0.2599015489 0.9862067372 0.8163392507
-0.2538291942 0.9851472957 0.8090169944
-0.2477468187 0.9840489623 0.8015669849
-0.2416546627 0.9829117803 0.7939903986
-0.2355529665 0.9817357946 0.7862884321
-0.2294419711 0.9805210517 0.7784623016
-0.2233219177 0.9792675995 0.7705132428
-0.2171930479 0.9779754875 0.7624425110
-0.2110556038 0.9766447667 0.7542513807
-0.2049098275 0.9752754896 0.7459411454
-0.1987559617 0.9738677103 0.7375131174
-0.1925942494 0.9724214844 0.7289686274
-0.1864249338 0.9709368689 0.7203090249
-0.1802482584 0.9694139226 0.7115356772
-0.1740644672 0.9678527054 0.7026499698
-0.1678738042 0.9662532790 0.6936533058
-0.1616765138 0.9646157067 0.6845471059
-0.1554728407 0.9629400529 0.6753328081
-0.1492630299 0.9612263840 0.6660118674
-0.1430473263 0.9594747674 0.6565857558
-0.1368259755 0.9576852725 0.6470559616
-0.1305992231 0.9558579697 0.6374239897
-0.1243673148 0.9539929313 0.6276913613
-0.1181304967 0.9520902310 0.6178596131
-0.1118890150 0.9501499437 0.6079302977
-0.1056431161 0.9481721461 0.5979049831
-0.0993930467 0.9461569164 0.5877852523
-0.0931390533 0.9441043339 0.5775727034
-0.0868813830 0.9420144799 0.5672689491
-0.0806202827 0.9398874367 0.5568756165
-0.0743559997 0.9377232884 0.5463943467
-0.0680887813 0.9355221203 0.5358267950
-0.0618188748 0.9332840195 0.5251746300
-0.0555465278 0.9310090742 0.5144395338
-0.0492719880 0.9286973743 0.5036232016
-0.0429955030 0.9263490109 0.4927273415
-0.0367173205 0.9239640769 0.4817536741
-0.0304376886 0.9215426664 0.4707039322
-0.0241568550 0.9190848750 0.4595798606
-0.0178750677 0.9165907996 0.4483832161
-0.0115925748 0.9140605389 0.4371157667
-0.0053096242 0.9114941925 0.4257792916
0.0009735360 0.9088918620 0.4143755810
0.0072566578 0.9062536499 0.4029064357
0.0135394931 0.9035796606 0.3913736668
0.0198217938 0.9008699994 0.3797790955
0.0261033121 0.8981247734 0.3681245527
0.0323837998 0.8953440910 0.3564118787
0.0386630091 0.8925280620 0.3446429232
0.0449406920 0.8896767975 0.3328195445
0.0512166008 0.8867904100 0.3209436098
0.0574904876 0.8838690136 0.3090169944
0.0637621047 0.8809127235 0.2970415816
0.0700312047 0.8779216566 0.2850192625
0.0762975399 0.8748959308 0.2729519355
0.0825608631 0.8718356655 0.2608415063
0.0888209269 0.8687409818 0.2486898872
0.0950774841 0.8656120016 0.2364989970
0.1013302879 0.8624488485 0.2242707609
0.1075790914 0.8592516474 0.2120071099
0.1138236478 0.8560205245 0.1997099805
0.1200637106 0.8527556075 0.1873813146
0.1262990336 0.8494570250 0.1750230590
0.1325293704 0.8461249075 0.1626371652
0.1387544752 0.8427593864 0.1502255891
0.1449741023 0.8393605946 0.1377902907
0.1511880060 0.8359286663 0.1253332336
0.1573959411 0.8324637370 0.1128563849
0.1635976624 0.8289659434 0.1003617149
0.1697929252 0.8254354237 0.0878511966
0.1759814849 0.8218723171 0.0753268055
0.1821630971 0.8182767645 0.0627905195
0.1883375178 0.8146489077 0.0502443182
0.1945045033 0.8109888900 0.0376901827
0.2006638100 0.8072968558 0.0251300954
0.2068151950 0.8035729509 0.0125660399
0.2129584152 0.7998173223 -0.0000000000
0.2190932281 0.7960301183 -0.0125660399
0.2252193917 0.7922114884 -0.0251300954
0.2313366639 0.7883615834 -0.0376901827
0.2374448034 0.7844805552 -0.0502443182
0.2435435690 0.7805685570 -0.0627905195
0.2496327199 0.7766257433 -0.0753268055
0.2557120157 0.7726522698 -0.0878511966
0.2617812165 0.7686482933 -0.1003617149
0.2678400825 0.7646139719 -0.1128563849
0.2738883747 0.7605494648 -0.1253332336
0.2799258543 0.7564549325 -0.1377902907
0.2859522829 0.7523305367 -0.1502255891
0.2919674225 0.7481764401 -0.1626371652
0.2979710358 0.7439928069 -0.1750230590
0.3039628857 0.7397798020 -0.1873813146
0.3099427357 0.7355375920 -0.1997099805
0.3159103497 0.7312663441 -0.2120071099
0.3218654920 0.7269662272 -0.2242707609
0.3278079277 0.7226374108 -0.2364989970
0.3337374220 0.7182800659 -0.2486898872
0.3396537410 0.7138943646 -0.2608415063
0.3455566511 0.7094804800 -0.2729519355
0.3514459191 0.7050385863 -0.2850192625
0.3573213127 0.7005688588 -0.2970415816
0.3631825998 0.6960714741 -0.3090169944
0.3690295491 0.6915466097 -0.3209436098
0.3748619298 0.6869944443 -0.3328195445
0.3806795115 0.6824151574 -0.3446429232
0.3864820647 0.6778089300 -0.3564118787
0.3922693602 0.6731759438 -0.3681245527
0.3980411696 0.6685163819 -0.3797790955
0.4037972650 0.6638304280 -0.3913736668
0.4095374192 0.6591182672 -0.4029064357
0.4152614056 0.6543800856 -0.4143755810
0.4209689981 0.6496160702 -0.4257792916
0.4266599715 0.6448264090 -0.4371157667
0.4323341011 0.6400112912 -0.4483832161
0.4379911629 0.6351709068 -0.4595798606
0.4436309336 0.6303054470 -0.4707039322
0.4492531904 0.6254151038 -0.4817536741
0.4548577115 0.6205000703 -0.4927273415
0.4604442756 0.6155605405 -0.5036232016
0.4660126622 0.6105967095 -0.5144395338
0.4715626514 0.6056087731 -0.5251746300
0.4770940241 0.6005969283 -0.5358267950
0.4826065619 0.5955613730 -0.5463943467
0.4881000473 0.5905023059 -0.5568756165
0.4935742633 0.5854199269 -0.5672689491
0.4990289938 0.5803144364 -0.5775727034
0.5044640235 0.5751860361 -0.5877852523
0.5098791379 0.5700349285 -0.5979049831
0.5152741231 0.5648613169 -0.6079302977
0.5206487661 0.5596654055 -0.6178596131
0.5260028549 0.5544473995 -0.6276913613
0.5313361779 0.5492075048 -0.6374239897
0.5366485247 0.5439459284 -0.6470559616
0.5419396855 0.5386628779 -0.6565857558
0.5472094515 0.5333585619 -0.6660118674
0.5524576146 0.5280331898 -0.6753328081
0.5576839676 0.5226869719 -0.6845471059
0.5628883042 0.5173201193 -0.6936533058
0.5680704189 0.5119328437 -0.7026499698
0.5732301072 0.5065253578 -0.7115356772
0.5783671654 0.5010978752 -0.7203090249
0.5834813906 0.4956506102 -0.7289686274
0.5885725809 0.4901837776 -0.7375131174
0.5936405354 0.4846975935 -0.7459411454
0.5986850540 0.4791922744 -0.7542513807
0.6037059376 0.4736680375 -0.7624425110
0.6087029878 0.4681251011 -0.7705132428
0.6136760076 0.4625636838 -0.7784623016
0.6186248004 0.4569840054 -0.7862884321
0.6235491710 0.4513862860 -0.7939903986
0.6284489249 0.4457707466 -0.8015669849
0.6333238688 0.4401376090 -0.8090169944
0.6381738101 0.4344870955 -0.8163392507
0.6429985574 0.4288194292 -0.8235325976
0.6477979202 0.4231348338 -0.8305958992
0.6525717090 0.4174335338 -0.8375280400
0.6573197355 0.4117157543 -0.8443279255
0.6620418121 0.4059817209 -0.8509944818
0.6667377524 0.4002316600 -0.8575266562
0.6714073710 0.3944657987 -0.8639234172
0.6760504837 0.3886843645 -0.8701837547
0.6806669070 0.3828875858 -0.8763066800
0.6852564587 0.3770756913 -0.8822912264
0.6898189577 0.3712489105 -0.8881364488
0.6943542239 0.3654074734 -0.8938414242
0.6988620781 0.3595516107 -0.8994052516
0.7033423424 0.3536815535 -0.9048270525
0.7077948400 0.3477975335 -0.9101059707
0.7122193951 0.3418997831 -0.9152411726
0.7166158329 0.3359885351 -0.9202318474
0.7209839800 0.3300640228 -0.9250772068
0.7253236639 0.3241264802 -0.9297764859
0.7296347132 0.3181761416 -0.9343289425
0.7339169578 0.3122132419 -0.9387338577
0.7381702287 0.3062380167 -0.9429905359
0.7423943578 0.3002507016 -0.9470983050
0.7465891785 0.2942515332 -0.9510565163
0.7507545251 0.2882407482 -0.9548645447
0.7548902332 0.2822185840 -0.9585217890
0.7589961395 0.2761852783 -0.9620276716
0.7630720820 0.2701410692 -0.9653816388
0.7671178997 0.2640861954 -0.9685831611
0.7711334328 0.2580208960 -0.9716317329
0.7751185230 0.2519454104 -0.9745268728
0.7790730128 0.2458599783 -0.9772681236
0.7829967461 0.2397648402 -0.9798550524
0.7868895681 0.2336602365 -0.9822872507
0.7907513250 0.2275464084 -0.9845643345
0.7945818644 0.2214235970 -0.9866859442
0.7983810351 0.2152920443 -0.9886517447
0.8021486870 0.2091519922 -0.9904614257
0.8058846715 0.2030036832 -0.9921147013
0.8095888411 0.1968473599 -0.9936113105
0.8132610495 0.1906832654 -0.9949510170
0.8169011517 0.1845116430 -0.9961336091
0.8205090040 0.1783327365 -0.9971589003
0.8240844641 0.1721467897 -0.9980267284
0.8276273907 0.1659540468 -0.9987369566
0.8311376441 0.1597547523 -0.9992894726
0.8346150855 0.1535491510 -0.9996841893
0.8380595777 0.1473374879 -0.9999210442
0.8414709848 0.1411200081 -1.0000000000
0.8448491721 0.1348969571 -0.9999210442
0.8481940061 0.1286685806 -0.9996841893
0.8515053549 0.1224351245 -0.9992894726
0.8547830878 0.1161968349 -0.9987369566
0.8580270752 0.1099539581 -0.9980267284
0.8612371893 0.1037067404 -0.9971589003
0.8644133031 0.0974554286 -0.9961336091
0.8675552914 0.0912002694 -0.9949510170
0.8706630301 0.0849415097 -0.9936113105
0.8737363965 0.0786793968 -0.9921147013
0.8767752693 0.0724141777 -0.9904614257
0.8797795285 0.0661460998 -0.9886517447
0.8827490556 0.0598754106 -0.9866859442
0.8856837332 0.0536023575 -0.9845643345
0.8885834455 0.0473271884 -0.9822872507
0.8914480780 0.0410501509 -0.9798550524
0.8942775178 0.0347714928 -0.9772681236
0.8970716530 0.0284914619 -0.9745268728
0.8998303733 0.0222103063 -0.9716317329
0.9025535699 0.0159282738 -0.9685831611
0.9052411352 0.0096456126 -0.9653816388
0.9078929631 0.0033625705 -0.9620276716
0.9105089489 -0.0029206043 -0.9585217890
0.9130889895 -0.0092036638 -0.9548645447
0.9156329828 -0.0154863600 -0.9510565163
0.9181408285 -0.0217684448 -0.9470983050
0.9206124276 -0.0280496702 -0.9429905359
0.9230476825 -0.0343297883 -0.9387338577
0.9254464971 -0.0406085511 -0.9343289425
0.9278087766 -0.0468857107 -0.9297764859
0.9301344278 -0.0531610194 -0.9250772068
0.9324233589 -0.0594342293 -0.9202318474
0.9346754795 -0.0657050929 -0.9152411726
0.9368907007 -0.0719733626 -0.9101059707
0.9390689351 -0.0782387909 -0.9048270525
0.9412100966 -0.0845011304 -0.8994052516
0.9433141008 -0.0907601340 -0.8938414242
0.9453808646 -0.0970155545 -0.8881364488
0.9474103063 -0.1032671451 -0.8822912264
0.9494023459 -0.1095146588 -0.8763066800
0.9513569048 -0.1157578490 -0.8701837547
0.9532739057 -0.1219964694 -0.8639234172
0.9551532729 -0.1282302735 -0.8575266562
0.9569949324 -0.1344590153 -0.8509944818
0.9587988113 -0.1406824489 -0.8443279255
0.9605648385 -0.1469003286 -0.8375280400
0.9622929442 -0.1531124090 -0.8305958992
0.9639830603 -0.1593184447 -0.8235325976
0.9656351200 -0.1655181908 -0.8163392507
0.9672490580 -0.1717114025 -0.8090169944
0.9688248107 -0.1778978354 -0.8015669849
0.9703623158 -0.1840772451 -0.7939903986
0.9718615128 -0.1902493878 -0.7862884321
0.9733223422 -0.1964140198 -0.7784623016
0.9747447466 -0.2025708977 -0.7705132428
0.9761286698 -0.2087197784 -0.7624425110
0.9774740570 -0.2148604192 -0.7542513807
0.9787808553 -0.2209925777 -0.7459411454
0.9800490129 -0.2271160118 -0.7375131174
0.9812784799 -0.2332304798 -0.7289686274
0.9824692077 -0.2393357402 -0.7203090249
0.9836211493 -0.2454315520 -0.7115356772
0.9847342592 -0.2515176747 -0.7026499698
0.9858084935 -0.2575938678 -0.6936533058
0.9868438098 -0.2636598916 -0.6845471059
0.9878401671 -0.2697155065 -0.6753328081
0.9887975262 -0.2757604736 -0.6660118674
0.9897158493 -0.2817945540 -0.6565857558
0.9905951001 -0.2878175098 -0.6470559616
0.9914352439 -0.2938291029 -0.6374239897
0.9922362476 -0.2998290962 -0.6276913613
0.9929980794 -0.3058172528 -0.6178596131
0.9937207094 -0.3117933362 -0.6079302977
0.9944041090 -0.3177571106 -0.5979049831
0.9950482512 -0.3237083404 -0.5877852523
0.9956531107 -0.3296467908 -0.5775727034
0.9962186634 -0.3355722273 -0.5672689491
0.9967448871 -0.3414844160 -0.5568756165
0.9972317611 -0.3473831234 -0.5463943467
0.9976792660 -0.3532681168 -0.5358267950
0.9980873843 -0.3591391638 -0.5251746300
0.9984560998 -0.3649960325 -0.5144395338
0.9987853980 -0.3708384919 -0.5036232016
0.9990752658 -0.3766663111 -0.4927273415
0.9993256918 -0.3824792603 -0.4817536741
0.9995366662 -0.3882771098 -0.4707039322
0.9997081806 -0.3940596308 -0.4595798606
0.9998402282 -0.3998265949 -0.4483832161
0.9999328038 -0.4055777747 -0.4371157667
0.9999859038 -0.4113129429 -0.4257792916
0.9999995261 -0.4170318731 -0.4143755810
0.9999736701 -0.4227343397 -0.4029064357
0.9999083369 -0.4284201174 -0.3913736668
0.9998035289 -0.4340889819 -0.3797790955
0.9996592505 -0.4397407092 -0.3681245527
0.9994755072 -0.4453750764 -0.3564118787
0.9992523063 -0.4509918609 -0.3446429232
0.9989896567 -0.4565908410 -0.3328195445
0.9986875687 -0.4621717957 -0.3209436098
0.9983460542 -0.4677345046 -0.3090169944
0.9979651266 -0.4732787482 -0.2970415816
0.9975448012 -0.4788043075 -0.2850192625
0.9970850944 -0.4843109645 -0.2729519355
0.9965860243 -0.4897985017 -0.2608415063
0.9960476108 -0.4952667025 -0.2486898872
0.9954698750 -0.5007153510 -0.2364989970
0.9948528397 -0.5061442322 -0.2242707609
0.9941965294 -0.5115531316 -0.2120071099
0.9935009699 -0.5169418358 -0.1997099805
0.9927661887 -0.5223101320 -0.1873813146
0.9919922147 -0.5276578083 -0.1750230590
0.9911790787 -0.5329846535 -0.1626371652
0.9903268125 -0.5382904575 -0.1502255891
0.9894354500 -0.5435750106 -0.1377902907
0.9885050262 -0.5488381044 -0.1253332336
0.9875355780 -0.5540795310 -0.1128563849
0.9865271435 -0.5592990834 -0.1003617149
0.9854797626 -0.5644965557 -0.0878511966
0.9843934767 -0.5696717426 -0.0753268055
0.9832683286 -0.5748244399 -0.0627905195
0.9821043628 -0.5799544440 -0.0502443182
0.9809016251 -0.5850615526 -0.0376901827
0.9796601632 -0.5901455639 -0.0251300954
0.9783800259 -0.5952062773 -0.0125660399
0.9770612639 -0.6002434930 0.0000000000
0.9757039292 -0.6052570121 0.0125660399
0.9743080753 -0.6102466367 0.0251300954
0.9728737574 -0.6152121698 0.0376901827
0.9714010322 -0.6201534153 0.0502443182
0.9698899577 -0.6250701783 0.0627905195
0.9683405936 -0.6299622646 0.0753268055
0.9667530010 -0.6348294810 0.0878511966
0.9651272428 -0.6396716355 0.1003617149
0.9634633829 -0.6444885368 0.1128563849
0.9617614872 -0.6492799948 0.1253332336
0.9600216227 -0.6540458203 0.1377902907
0.9582438583 -0.6587858253 0.1502255891
0.9564282640 -0.6634998225 0.1626371652
0.9545749116 -0.6681876258 0.1750230590
0.9526838742 -0.6728490503 0.1873813146
0.9507552264 -0.6774839118 0.1997099805
0.9487890445 -0.6820920275 0.2120071099
0.9467854060 -0.6866732153 0.2242707609
0.9447443901 -0.6912272944 0.2364989970
0.9426660772 -0.6957540851 0.2486898872
0.9405505495 -0.7002534085 0.2608415063
0.9383978905 -0.7047250872 0.2729519355
0.9362081851 -0.7091689445 0.2850192625
0.9339815199 -0.7135848051 0.2970415816
0.9317179826 -0.7179724945 0.3090169944
0.9294176628 -0.7223318396 0.3209436098
0.9270806511 -0.7266626683 0.3328195445
0.9247070398 -0.7309648096 0.3446429232
0.9222969227 -0.7352380937 0.3564118787
0.9198503949 -0.7394823518 0.3681245527
0.9173675530 -0.7436974164 0.3797790955
0.9148484950 -0.7478831211 0.3913736668
0.9122933203 -0.7520393007 0.4029064357
0.9097021299 -0.7561657911 0.4143755810
0.9070750259 -0.7602624293 0.4257792916
0.9044121122 -0.7643290537 0.4371157667
0.9017134939 -0.7683655036 0.4483832161
0.8989792774 -0.7723716198 0.4595798606
0.8962095708 -0.7763472441 0.4707039322
0.8934044834 -0.7802922195 0.4817536741
0.8905641259 -0.7842063904 0.4927273415
0.8876886104 -0.7880896021 0.5036232016
0.8847780505 -0.7919417014 0.5144395338
0.8818325611 -0.7957625362 0.5251746300
0.8788522585 -0.7995519556 0.5358267950
0.8758372602 -0.8033098101 0.5463943467
0.8727876854 -0.8070359513 0.5568756165
0.8697036545 -0.8107302321 0.5672689491
0.8665852891 -0.8143925066 0.5775727034
0.8634327125 -0.8180226304 0.5877852523
0.8602460490 -0.8216204600 0.5979049831
0.8570254244 -0.8251858534 0.6079302977
0.8537709660 -0.8287186699 0.6178596131
0.8504828021 -0.8322187701 0.6276913613
0.8471610626 -0.8356860156 0.6374239897
0.8438058787 -0.8391202697 0.6470559616
0.8404173828 -0.8425213968 0.6565857558
0.8369957086 -0.8458892625 0.6660118674
0.8335409912 -0.8492237340 0.6753328081
0.8300533671 -0.8525246796 0.6845471059
0.8265329739 -0.8557919690 0.6936533058
0.8229799506 -0.8590254732 0.7026499698
0.8193944375 -0.8622250645 0.7115356772
0.8157765760 -0.8653906167 0.7203090249
0.8121265091 -0.8685220047 0.7289686274
0.8084443809 -0.8716191050 0.7375131174
0.8047303366 -0.8746817952 0.7459411454
0.8009845230 -0.8777099545 0.7542513807
0.7972070879 -0.8807034633 0.7624425110
0.7933981804 -0.8836622034 0.7705132428
0.7895579508 -0.8865860581 0.7784623016
0.7856865509 -0.8894749119 0.7862884321
0.7817841335 -0.8923286507 0.7939903986
0.7778508525 -0.8951471619 0.8015669849
0.7738868633 -0.8979303342 0.8090169944
0.7698923224 -0.9006780578 0.8163392507
0.7658673875 -0.9033902242 0.8235325976
0.7618122174 -0.9060667262 0.8305958992
0.7577269723 -0.9087074583 0.8375280400
0.7536118134 -0.9113123162 0.8443279255
0.7494669033 -0.9138811971 0.8509944818
0.7452924054 -0.9164139994 0.8575266562
0.7410884847 -0.9189106233 0.8639234172
0.7368553071 -0.9213709702 0.8701837547
0.7325930396 -0.9237949430 0.8763066800
0.7283018507 -0.9261824459 0.8822912264
0.7239819097 -0.9285333847 0.8881364488
0.7196333871 -0.9308476666 0.8938414242
0.7152564546 -0.9331252002 0.8994052516
0.7108512850 -0.9353658956 0.9048270525
0.7064180522 -0.9375696644 0.9101059707
0.7019569312 -0.9397364196 0.9152411726
0.6974680982 -0.9418660756 0.9202318474
0.6929517303 -0.9439585483 0.9250772068
0.6884080059 -0.9460137551 0.9297764859
0.6838371043 -0.9480316149 0.9343289425
0.6792392060 -0.9500120481 0.9387338577
0.6746144925 -0.9519549764 0.9429905359
0.6699631464 -0.9538603232 0.9470983050
0.6652853513 -0.9557280132 0.9510565163
0.6605812918 -0.9575579727 0.9548645447
0.6558511537 -0.9593501294 0.9585217890
0.6510951238 -0.9611044127 0.9620276716
0.6463133897 -0.9628207532 0.9653816388
0.6415061403 -0.9644990831 0.9685831611
0.6366735653 -0.9661393363 0.9716317329
0.6318158555 -0.9677414480 0.9745268728
0.6269332028 -0.9693053549 0.9772681236
0.6220257997 -0.9708309953 0.9798550524
0.6170938402 -0.9723183089 0.9822872507
0.6121375189 -0.9737672371 0.9845643345
0.6071570314 -0.9751777226 0.9866859442
0.6021525744 -0.9765497098 0.9886517447
0.5971243454 -0.9778831444 0.9904614257
0.5920725430 -0.9791779739 0.9921147013
0.5869973666 -0.9804341472 0.9936113105
0.5818990165 -0.9816516145 0.9949510170
0.5767776941 -0.9828303280 0.9961336091
0.5716336014 -0.9839702410 0.9971589003
0.5664669417 -0.9850713085 0.9980267284
0.5612779188 -0.9861334871 0.9987369566
0.5560667376 -0.9871567348 0.9992894726
0.5508336038 -0.9881410113 0.9996841893
0.5455787241 -0.9890862777 0.9999210442
0.5403023059 -0.9899924966 1.0000000000
0.5350045574 -0.9908596323 0.9999210442
0.5296856879 -0.9916876506 0.9996841893
0.5243459073 -0.9924765188 0.9992894726
0.5189854264 -0.9932262056 0.9987369566
0.5136044569 -0.9939366816 0.9980267284
0.5082032112 -0.9946079187 0.9971589003
0.5027819024 -0.9952398904 0.9961336091
0.4973407447 -0.9958325717 0.9949510170
0.4918799528 -0.9963859392 0.9936113105
0.4863997424 -0.9968999712 0.9921147013
0.4809003297 -0.9973746472 0.9904614257
0.4753819319 -0.9978099486 0.9886517447
0.4698447668 -0.9982058581 0.9866859442
0.4642890531 -0.9985623602 0.9845643345
0.4587150100 -0.9988794408 0.9822872507
0.4531228577 -0.9991570873 0.9798550524
0.4475128168 -0.9993952888 0.9772681236
0.4418851089 -0.9995940359 0.9745268728
0.4362399561 -0.9997533207 0.9716317329
0.4305775813 -0.9998731370 0.9685831611
0.4248982081 -0.9999534800 0.9653816388
0.4192020606 -0.9999943465 0.9620276716
0.4134893637 -0.9999957350 0.9585217890
0.4077603430 -0.9999576454 0.9548645447
0.4020152245 -0.9998800791 0.9510565163
0.3962542353 -0.9997630393 0.9470983050
0.3904776025 -0.9996065306 0.9429905359
0.3846855544 -0.9994105591 0.9387338577
0.3788783196 -0.9991751326 0.9343289425
0.3730561273 -0.9989002604 0.9297764859
0.3672192074 -0.9985859532 0.9250772068
0.3613677902 -0.9982322237 0.9202318474
0.3555021069 -0.9978390856 0.9152411726
0.3496223890 -0.9974065546 0.9101059707
0.3437288686 -0.9969346476 0.9048270525
0.3378217784 -0.9964233834 0.8994052516
0.3319013516 -0.9958727821 0.8938414242
0.3259678218 -0.9952828654 0.8881364488
0.3200214234 -0.9946536567 0.8822912264
0.3140623911 -0.9939851807 0.8763066800
0.3080909602 -0.9932774639 0.8701837547
0.3021073663 -0.9925305343 0.8639234172
0.2961118458 -0.9917444212 0.8575266562
0.2901046353 -0.9909191557 0.8509944818
0.2840859719 -0.9900547705 0.8443279255
0.2780560934 -0.9891512996 0.8375280400
0.2720152376 -0.9882087787 0.8305958992
0.2659636431 -0.9872272450 0.8235325976
0.2599015489 -0.9862067372 0.8163392507
0.2538291942 -0.9851472957 0.8090169944
0.2477468187 -0.9840489623 0.8015669849
0.2416546627 -0.9829117803 0.7939903986
0.2355529665 -0.9817357946 0.7862884321
0.2294419711 -0.9805210517 0.7784623016
0.2233219177 -0.9792675995 0.7705132428
0.2171930479 -0.9779754875 0.7624425110
0.2110556038 -0.9766447667 0.7542513807
0.2049098275 -0.9752754896 0.7459411454
0.1987559617 -0.9738677103 0.7375131174
0.1925942494 -0.9724214844 0.7289686274
0.1864249338 -0.9709368689 0.7203090249
0.1802482584 -0.9694139226 0.7115356772
0.1740644672 -0.9678527054 0.7026499698
0.1678738042 -0.9662532790 0.6936533058
0.1616765138 -0.9646157067 0.6845471059
0.1554728407 -0.9629400529 0.6753328081
0.1492630299 -0.9612263840 0.6660118674
0.1430473263 -0.9594747674 0.6565857558
0.1368259755 -0.9576852725 0.6470559616
0.1305992231 -0.9558579697 0.6374239897
0.1243673148 -0.9539929313 0.6276913613
0.1181304967 -0.9520902310 0.6178596131
0.1118890150 -0.9501499437 0.6079302977
0.1056431161 -0.9481721461 0.5979049831
0.0993930467 -0.9461569164 0.5877852523
0.0931390533 -0.9441043339 0.5775727034
0.0868813830 -0.9420144799 0.5672689491
0.0806202827 -0.9398874367 0.5568756165
0.0743559997 -0.9377232884 0.5463943467
0.0680887813 -0.9355221203 0.5358267950
0.0618188748 -0.9332840195 0.5251746300
0.0555465278 -0.9310090742 0.5144395338
0.0492719880 -0.9286973743 0.5036232016
0.0429955030 -0.9263490109 0.4927273415
0.0367173205 -0.9239640769 0.4817536741
0.0304376886 -0.9215426664 0.4707039322
0.0241568550 -0.9190848750 0.4595798606
0.0178750677 -0.9165907996 0.4483832161
0.0115925748 -0.9140605389 0.4371157667
0.0053096242 -0.9114941925 0.4257792916
-0.0009735360 -0.9088918620 0.4143755810
-0.0072566578 -0.9062536499 0.4029064357
-0.0135394931 -0.9035796606 0.3913736668
-0.0198217938 -0.9008699994 0.3797790955
-0.0261033121 -0.8981247734 0.3681245527
-0.0323837998 -0.8953440910 0.3564118787
-0.0386630091 -0.8925280620 0.3446429232
-0.0449406920 -0.8896767975 0.3328195445
-0.0512166008 -0.8867904100 0.3209436098
-0.0574904876 -0.8838690136 0.3090169944
-0.0637621047 -0.8809127235 0.2970415816
-0.0700312047 -0.8779216566 0.2850192625
-0.0762975399 -0.8748959308 0.2729519355
-0.0825608631 -0.8718356655 0.2608415063
-0.0888209269 -0.8687409818 0.2486898872
-0.0950774841 -0.8656120016 0.2364989970
-0.1013302879 -0.8624488485 0.2242707609
-0.1075790914 -0.8592516474 0.2120071099
-0.1138236478 -0.8560205245 0.1997099805
-0.1200637106 -0.8527556075 0.1873813146
-0.1262990336 -0.8494570250 0.1750230590
-0.1325293704 -0.8461249075 0.1626371652
-0.1387544752 -0.8427593864 0.1502255891
-0.1449741023 -0.8393605946 0.1377902907
-0.1511880060 -0.8359286663 0.1253332336
-0.1573959411 -0.8324637370 0.1128563849
-0.1635976624 -0.8289659434 0.1003617149
-0.1697929252 -0.8254354237 0.0878511966
-0.1759814849 -0.8218723171 0.0753268055
-0.1821630971 -0.8182767645 0.0627905195
-0.1883375178 -0.8146489077 0.0502443182
-0.1945045033 -0.8109888900 0.0376901827
-0.2006638100 -0.8072968558 0.0251300954
-0.2068151950 -0.8035729509 0.0125660399
-0.2129584152 -0.7998173223 -0.0000000000
-0.2190932281 -0.7960301183 -0.0125660399
-0.2252193917 -0.7922114884 -0.0251300954
-0.2313366639 -0.7883615834 -0.0376901827
-0.2374448034 -0.7844805552 -0.0502443182
-0.2435435690 -0.7805685570 -0.0627905195
-0.2496327199 -0.7766257433 -0.0753268055
-0.2557120157 -0.7726522698 -0.0878511966
-0.2617812165 -0.7686482933 -0.1003617149
-0.2678400825 -0.7646139719 -0.1128563849
-0.2738883747 -0.7605494648 -0.1253332336
-0.2799258543 -0.7564549325 -0.1377902907
-0.2859522829 -0.7523305367 -0.1502255891
-0.2919674225 -0.7481764401 -0.1626371652
-0.2979710358 -0.7439928069 -0.1750230590
-0.3039628857 -0.7397798020 -0.1873813146
-0.3099427357 -0.7355375920 -0.1997099805
-0.3159103497 -0.7312663441 -0.2120071099
-0.3218654920 -0.7269662272 -0.2242707609
-0.3278079277 -0.7226374108 -0.2364989970
-0.3337374220 -0.7182800659 -0.2486898872
-0.3396537410 -0.7138943646 -0.2608415063
-0.3455566511 -0.7094804800 -0.2729519355
-0.3514459191 -0.7050385863 -0.2850192625
-0.3573213127 -0.7005688588 -0.2970415816
-0.3631825998 -0.6960714741 -0.3090169944
-0.3690295491 -0.6915466097 -0.3209436098
-0.3748619298 -0.6869944443 -0.3328195445
-0.3806795115 -0.6824151574 -0.3446429232
-0.3864820647 -0.6778089300 -0.3564118787
-0.3922693602 -0.6731759438 -0.3681245527
-0.3980411696 -0.6685163819 -0.3797790955
-0.4037972650 -0.6638304280 -0.3913736668
-0.4095374192 -0.6591182672 -0.4029064357
-0.4152614056 -0.6543800856 -0.4143755810
-0.4209689981 -0.6496160702 -0.4257792916
-0.4266599715 -0.6448264090 -0.4371157667
-0.4323341011 -0.6400112912 -0.4483832161
-0.4379911629 -0.6351709068 -0.4595798606
-0.4436309336 -0.6303054470 -0.4707039322
-0.4492531904 -0.6254151038 -0.4817536741
-0.4548577115 -0.6205000703 -0.4927273415
-0.4604442756 -0.6155605405 -0.5036232016
-0.4660126622 -0.6105967095 -0.5144395338
-0.4715626514 -0.6056087731 -0.5251746300
-0.4770940241 -0.6005969283 -0.5358267950
-0.4826065619 -0.5955613730 -0.5463943467
-0.4881000473 -0.5905023059 -0.5568756165
-0.4935742633 -0.5854199269 -0.5672689491
-0.4990289938 -0.5803144364 -0.5775727034
-0.5044640235 -0.5751860361 -0.5877852523
-0.5098791379 -0.5700349285 -0.5979049831
-0.5152741231 -0.5648613169 -0.6079302977
-0.5206487661 -0.5596654055 -0.6178596131
-0.5260028549 -0.5544473995 -0.6276913613
-0.5313361779 -0.5492075048 -0.6374239897
-0.5366485247 -0.5439459284 -0.6470559616
-0.5419396855 -0.5386628779 -0.6565857558
-0.5472094515 -0.5333585619 -0.6660118674
-0.5524576146 -0.5280331898 -0.6753328081
-0.5576839676 -0.5226869719 -0.6845471059
-0.5628883042 -0.5173201193 -0.6936533058
-0.5680704189 -0.5119328437 -0.7026499698
-0.5732301072 -0.5065253578 -0.7115356772
-0.5783671654 -0.5010978752 -0.7203090249
-0.5834813906 -0.4956506102 -0.7289686274
-0.5885725809 -0.4901837776 -0.7375131174
-0.5936405354 -0.4846975935 -0.7459411454
-0.5986850540 -0.4791922744 -0.7542513807
-0.6037059376 -0.4736680375 -0.7624425110
-0.6087029878 -0.4681251011 -0.7705132428
-0.6136760076 -0.4625636838 -0.7784623016
-0.6186248004 -0.4569840054 -0.7862884321
-0.6235491710 -0.4513862860 -0.7939903986
-0.6284489249 -0.4457707466 -0.8015669849
-0.6333238688 -0.4401376090 -0.8090169944
-0.6381738101 -0.4344870955 -0.8163392507
-0.6429985574 -0.4288194292 -0.8235325976
-0.6477979202 -0.4231348338 -0.8305958992
-0.6525717090 -0.4174335338 -0.8375280400
-0.6573197355 -0.4117157543 -0.8443279255
-0.6620418121 -0.4059817209 -0.8509944818
-0.6667377524 -0.4002316600 -0.8575266562
-0.6714073710 -0.3944657987 -0.8639234172
-0.6760504837 -0.3886843645 -0.8701837547
-0.6806669070 -0.3828875858 -0.8763066800
-0.6852564587 -0.3770756913 -0.8822912264
-0.6898189577 -0.3712489105 -0.8881364488
-0.6943542239 -0.3654074734 -0.8938414242
-0.6988620781 -0.3595516107 -0.8994052516
-0.7033423424 -0.3536815535 -0.9048270525
-0.7077948400 -0.3477975335 -0.9101059707
-0.7122193951 -0.3418997831 -0.9152411726
-0.7166158329 -0.3359885351 -0.9202318474
-0.7209839800 -0.3300640228 -0.9250772068
-0.7253236639 -0.3241264802 -0.9297764859
-0.7296347132 -0.3181761416 -0.9343289425
-0.7339169578 -0.3122132419 -0.9387338577
-0.7381702287 -0.3062380167 -0.9429905359
-0.7423943578 -0.3002507016 -0.9470983050
-0.7465891785 -0.2942515332 -0.9510565163
-0.7507545251 -0.2882407482 -0.9548645447
-0.7548902332 -0.2822185840 -0.9585217890
-0.7589961395 -0.2761852783 -0.9620276716
-0.7630720820 -0.2701410692 -0.9653816388
-0.7671178997 -0.2640861954 -0.9685831611
-0.7711334328 -0.2580208960 -0.9716317329
-0.7751185230 -0.2519454104 -0.9745268728
-0.7790730128 -0.2458599783 -0.9772681236
-0.7829967461 -0.2397648402 -0.9798550524
-0.7868895681 -0.2336602365 -0.9822872507
-0.7907513250 -0.2275464084 -0.9845643345
-0.7945818644 -0.2214235970 -0.9866859442
-0.7983810351 -0.2152920443 -0.9886517447
-0.8021486870 -0.2091519922 -0.9904614257
-0.8058846715 -0.2030036832 -0.9921147013
-0.8095888411 -0.1968473599 -0.9936113105
-0.8132610495 -0.1906832654 -0.9949510170
-0.8169011517 -0.1845116430 -0.9961336091
-0.8205090040 -0.1783327365 -0.9971589003
-0.8240844641 -0.1721467897 -0.9980267284
-0.8276273907 -0.1659540468 -0.9987369566
-0.8311376441 -0.1597547523 -0.9992894726
-0.8346150855 -0.1535491510 -0.9996841893
-0.8380595777 -0.1473374879 -0.9999210442
-0.8414709848 -0.1411200081 -1.0000000000
-0.8448491721 -0.1348969571 -0.9999210442
-0.8481940061 -0.1286685806 -0.9996841893
-0.8515053549 -0.1224351245 -0.9992894726
-0.8547830878 -0.1161968349 -0.9987369566
-0.8580270752 -0.1099539581 -0.9980267284
-0.8612371893 -0.1037067404 -0.9971589003
-0.8644133031 -0.0974554286 -0.9961336091
-0.8675552914 -0.0912002694 -0.9949510170
-0.8706630301 -0.0849415097 -0.9936113105
-0.8737363965 -0.0786793968 -0.9921147013
-0.8767752693 -0.0724141777 -0.9904614257
-0.8797795285 -0.0661460998 -0.9886517447
-0.8827490556 -0.0598754106 -0.9866859442
-0.8856837332 -0.0536023575 -0.9845643345
-0.8885834455 -0.0473271884 -0.9822872507
-0.8914480780 -0.0410501509 -0.9798550524
-0.8942775178 -0.0347714928 -0.9772681236
-0.8970716530 -0.0284914619 -0.9745268728
-0.8998303733 -0.0222103063 -0.9716317329
-0.9025535699 -0.0159282738 -0.9685831611
-0.9052411352 -0.0096456126 -0.9653816388
-0.9078929631 -0.0033625705 -0.9620276716
-0.9105089489 0.0029206043 -0.9585217890
-0.9130889895 0.0092036638 -0.9548645447
-0.9156329828 0.0154863600 -0.9510565163
-0.9181408285 0.0217684448 -0.9470983050
-0.9206124276 0.0280496702 -0.9429905359
-0.9230476825 0.0343297883 -0.9387338577
-0.9254464971 0.0406085511 -0.9343289425
-0.9278087766 0.0468857107 -0.9297764859
-0.9301344278 0.0531610194 -0.9250772068
-0.9324233589 0.0594342293 -0.9202318474
-0.9346754795 0.0657050929 -0.9152411726
-0.9368907007 0.0719733626 -0.9101059707
-0.9390689351 0.0782387909 -0.9048270525
-0.9412100966 0.0845011304 -0.8994052516
-0.9433141008 0.0907601340 -0.8938414242
-0.9453808646 0.0970155545 -0.8881364488
-0.9474103063 0.1032671451 -0.8822912264
-0.9494023459 0.1095146588 -0.8763066800
-0.9513569048 0.1157578490 -0.8701837547
-0.9532739057 0.1219964694 -0.8639234172
-0.9551532729 0.1282302735 -0.8575266562
-0.9569949324 0.1344590153 -0.8509944818
-0.9587988113 0.1406824489 -0.8443279255
-0.9605648385 0.1469003286 -0.8375280400
-0.9622929442 0.1531124090 -0.8305958992
-0.9639830603 0.1593184447 -0.8235325976
-0.9656351200 0.1655181908 -0.8163392507
-0.9672490580 0.1717114025 -0.8090169944
-0.9688248107 0.1778978354 -0.8015669849
-0.9703623158 0.1840772451 -0.7939903986
-0.9718615128 0.1902493878 -0.7862884321
-0.9733223422 0.1964140198 -0.7784623016
-0.9747447466 0.2025708977 -0.7705132428
-0.9761286698 0.2087197784 -0.7624425110
-0.9774740570 0.2148604192 -0.7542513807
-0.9787808553 0.2209925777 -0.7459411454
-0.9800490129 0.2271160118 -0.7375131174
-0.9812784799 0.2332304798 -0.7289686274
-0.9824692077 0.2393357402 -0.7203090249
-0.9836211493 0.2454315520 -0.7115356772
-0.9847342592 0.2515176747 -0.7026499698
-0.9858084935 0.2575938678 -0.6936533058
-0.9868438098 0.2636598916 -0.6845471059
-0.9878401671 0.2697155065 -0.6753328081
-0.9887975262 0.2757604736 -0.6660118674
-0.9897158493 0.2817945540 -0.6565857558
-0.9905951001 0.2878175098 -0.6470559616
-0.9914352439 0.2938291029 -0.6374239897
-0.9922362476 0.2998290962 -0.6276913613
-0.9929980794 0.3058172528 -0.6178596131
-0.9937207094 0.3117933362 -0.6079302977
-0.9944041090 0.3177571106 -0.5979049831
-0.9950482512 0.3237083404 -0.5877852523
-0.9956531107 0.3296467908 -0.5775727034
-0.9962186634 0.3355722273 -0.5672689491
-0.9967448871 0.3414844160 -0.5568756165
-0.9972317611 0.3473831234 -0.5463943467
-0.9976792660 0.3532681168 -0.5358267950
-0.9980873843 0.3591391638 -0.5251746300
-0.9984560998 0.3649960325 -0.5144395338
-0.9987853980 0.3708384919 -0.5036232016
-0.9990752658 0.3766663111 -0.4927273415
-0.9993256918 0.3824792603 -0.4817536741
-0.9995366662 0.3882771098 -0.4707039322
-0.9997081806 0.3940596308 -0.4595798606
-0.9998402282 0.3998265949 -0.4483832161
-0.9999328038 0.4055777747 -0.4371157667
-0.9999859038 0.4113129429 -0.4257792916
-0.9999995261 0.4170318731 -0.4143755810
-0.9999736701 0.4227343397 -0.4029064357
-0.9999083369 0.4284201174 -0.3913736668
-0.9998035289 0.4340889819 -0.3797790955
-0.9996592505 0.4397407092 -0.3681245527
-0.9994755072 0.4453750764 -0.3564118787
-0.9992523063 0.4509918609 -0.3446429232
-0.9989896567 0.4565908410 -0.3328195445
-0.9986875687 0.4621717957 -0.3209436098
-0.9983460542 0.4677345046 -0.3090169944
-0.9979651266 0.4732787482 -0.2970415816
-0.9975448012 0.4788043075 -0.2850192625
-0.9970850944 0.4843109645 -0.2729519355
-0.9965860243 0.4897985017 -0.2608415063
-0.9960476108 0.4952667025 -0.2486898872
-0.9954698750 0.5007153510 -0.2364989970
-0.9948528397 0.5061442322 -0.2242707609
-0.9941965294 0.5115531316 -0.2120071099
-0.9935009699 0.5169418358 -0.1997099805
-0.9927661887 0.5223101320 -0.1873813146
-0.9919922147 0.5276578083 -0.1750230590
-0.9911790787 0.5329846535 -0.1626371652
-0.9903268125 0.5382904575 -0.1502255891
-0.9894354500 0.5435750106 -0.1377902907
-0.9885050262 0.5488381044 -0.1253332336
-0.9875355780 0.5540795310 -0.1128563849
-0.9865271435 0.5592990834 -0.1003617149
-0.9854797626 0.5644965557 -0.0878511966
-0.9843934767 0.5696717426 -0.0753268055
-0.9832683286 0.5748244399 -0.0627905195
-0.9821043628 0.5799544440 -0.0502443182
-0.9809016251 0.5850615526 -0.0376901827
-0.9796601632 0.5901455639 -0.0251300954
-0.9783800259 0.5952062773 -0.0125660399
-0.9770612639 0.6002434930 -0.0000000000
-0.9757039292 0.6052570121 0.0125660399
-0.9743080753 0.6102466367 0.0251300954
-0.9728737574 0.6152121698 0.0376901827
-0.9714010322 0.6201534153 0.0502443182
-0.9698899577 0.6250701783 0.0627905195
-0.9683405936 0.6299622646 0.0753268055
-0.9667530010 0.6348294810 0.0878511966
-0.9651272428 0.6396716355 0.1003617149
-0.9634633829 0.6444885368 0.1128563849
-0.9617614872 0.6492799948 0.1253332336
-0.9600216227 0.6540458203 0.1377902907
-0.9582438583 0.6587858253 0.1502255891
-0.9564282640 0.6634998225 0.1626371652
-0.9545749116 0.6681876258 0.1750230590
-0.9526838742 0.6728490503 0.1873813146
-0.9507552264 0.6774839118 0.1997099805
-0.9487890445 0.6820920275 0.2120071099
-0.9467854060 0.6866732153 0.2242707609
-0.9447443901 0.6912272944 0.2364989970
-0.9426660772 0.6957540851 0.2486898872
-0.9405505495 0.7002534085 0.2608415063
-0.9383978905 0.7047250872 0.2729519355
-0.9362081851 0.7091689445 0.2850192625
-0.9339815199 0.7135848051 0.2970415816
-0.9317179826 0.7179724945 0.3090169944
-0.9294176628 0.7223318396 0.3209436098
-0.9270806511 0.7266626683 0.3328195445
-0.9247070398 0.7309648096 0.3446429232
-0.9222969227 0.7352380937 0.3564118787
-0.9198503949 0.7394823518 0.3681245527
-0.9173675530 0.7436974164 0.3797790955
-0.9148484950 0.7478831211 0.3913736668
-0.9122933203 0.7520393007 0.4029064357
-0.9097021299 0.7561657911 0.4143755810
-0.9070750259 0.7602624293 0.4257792916
-0.9044121122 0.7643290537 0.4371157667
-0.9017134939 0.7683655036 0.4483832161
-0.8989792774 0.7723716198 0.4595798606
-0.8962095708 0.7763472441 0.4707039322
-0.8934044834 0.7802922195 0.4817536741
-0.8905641259 0.7842063904 0.4927273415
-0.8876886104 0.7880896021 0.5036232016
-0.8847780505 0.7919417014 0.5144395338
-0.8818325611 0.7957625362 0.5251746300
-0.8788522585 0.7995519556 0.5358267950
-0.8758372602 0.8033098101 0.5463943467
-0.8727876854 0.8070359513 0.5568756165
-0.8697036545 0.8107302321 0.5672689491
-0.8665852891 0.8143925066 0.5775727034
-0.8634327125 0.8180226304 0.5877852523
-0.8602460490 0.8216204600 0.5979049831
-0.8570254244 0.8251858534 0.6079302977
-0.8537709660 0.8287186699 0.6178596131
-0.8504828021 0.8322187701 0.6276913613
-0.8471610626 0.8356860156 0.6374239897
-0.8438058787 0.8391202697 0.6470559616
-0.8404173828 0.8425213968 0.6565857558
-0.8369957086 0.8458892625 0.6660118674
-0.8335409912 0.8492237340 0.6753328081
-0.8300533671 0.8525246796 0.6845471059
-0.8265329739 0.8557919690 0.6936533058
-0.8229799506 0.8590254732 0.7026499698
-0.8193944375 0.8622250645 0.7115356772
-0.8157765760 0.8653906167 0.7203090249
-0.8121265091 0.8685220047 0.7289686274
-0.8084443809 0.8716191050 0.7375131174
-0.8047303366 0.8746817952 0.7459411454
-0.8009845230 0.8777099545 0.7542513807
-0.7972070879 0.8807034633 0.7624425110
-0.7933981804 0.8836622034 0.7705132428
-0.7895579508 0.8865860581 0.7784623016
-0.7856865509 0.8894749119 0.7862884321
-0.7817841335 0.8923286507 0.7939903986
-0.7778508525 0.8951471619 0.8015669849
-0.7738868633 0.8979303342 0.8090169944
-0.7698923224 0.9006780578 0.8163392507
-0.7658673875 0.9033902242 0.8235325976
-0.7618122174 0.9060667262 0.8305958992
-0.7577269723 0.9087074583 0.8375280400
-0.7536118134 0.9113123162 0.8443279255
-0.7494669033 0.9138811971 0.8509944818
-0.7452924054 0.9164139994 0.8575266562
-0.7410884847 0.9189106233 0.8639234172
-0.7368553071 0.9213709702 0.8701837547
-0.7325930396 0.9237949430 0.8763066800
-0.7283018507 0.9261824459 0.8822912264
-0.7239819097 0.9285333847 0.8881364488
-0.7196333871 0.9308476666 0.8938414242
-0.7152564546 0.9331252002 0.8994052516
-0.7108512850 0.9353658956 0.9048270525
-0.7064180522 0.9375696644 0.9101059707
-0.7019569312 0.9397364196 0.9152411726
-0.6974680982 0.9418660756 0.9202318474
-0.6929517303 0.9439585483 0.9250772068
-0.6884080059 0.9460137551 0.9297764859
-0.6838371043 0.9480316149 0.9343289425
-0.6792392060 0.9500120481 0.9387338577
-0.6746144925 0.9519549764 0.9429905359
-0.6699631464 0.9538603232 0.9470983050
-0.6652853513 0.9557280132 0.9510565163
-0.6605812918 0.9575579727 0.9548645447
-0.6558511537 0.9593501294 0.9585217890
-0.6510951238 0.9611044127 0.9620276716
-0.6463133897 0.9628207532 0.9653816388
-0.6415061403 0.9644990831 0.9685831611
-0.6366735653 0.9661393363 0.9716317329
-0.6318158555 0.9677414480 0.9745268728
-0.6269332028 0.9693053549 0.9772681236
-0.6220257997 0.9708309953 0.9798550524
-0.6170938402 0.9723183089 0.9822872507
-0.6121375189 0.9737672371 0.9845643345
-0.6071570314 0.9751777226 0.9866859442
-0.6021525744 0.9765497098 0.9886517447
-0.5971243454 0.9778831444 0.9904614257
-0.5920725430 0.9791779739 0.9921147013
-0.5869973666 0.9804341472 0.9936113105
-0.5818990165 0.9816516145 0.9949510170
-0.5767776941 0.9828303280 0.9961336091
-0.5716336014 0.9839702410 0.9971589003
-0.5664669417 0.9850713085 0.9980267284
-0.5612779188 0.9861334871 0.9987369566
-0.5560667376 0.9871567348 0.9992894726
-0.5508336038 0.9881410113 0.9996841893
-0.5455787241 0.9890862777 0.9999210442
 0 1
 1 2
 2 3
 3 4
 4 5
 5 6
 6 7
 7 8
 8 9
  9 10
 10 11
 11 12
 12 13
 13 14
 14 15
 15 16
 16 17
 17 18
 18 19
 19 20
 20 21
 21 22
 22 23
 23 24
 24 25
 25 26
 26 27
 27 28
 28 29
 29 30
 30 31
 31 32
 32 33
 33 34
 34 35
 35 36
 36 37
 37 38
 38 39
 39 40
 40 41
 41 42
 42 43
 43 44
 44 45
 45 46
 46 47
 47 48
 48 49
 49 50
 50 51
 51 52
 52 53
 53 54
 54 55
 55 56
 56 57
 57 58
 58 59
 59 60
 60 61
 61 62
 62 63
 63 64
 64 65
 65 66
 66 67
 67 68
 68 69
 69 70
 70 71
 71 72
 72 73
 73 74
 74 75
 75 76
 76 77
 77 78
 78 79
 79 80
 80 81
 81 82
 82 83
 83 84
 84 85
 85 86
 86 87
 87 88
 88 89
 89 90
 90 91
 91 92
 92 93
 93 94
 94 95
 95 96
 96 97
 97 98
 98 99
  99 100
 100 101
 101 102
 102 103
 103 104
 104 105
 105 106
 106 107
 107 108
 108 109
 109 110
 110 111
 111 112
 112 113
 113 114
 114 115
 115 116
 116 117
 117 118
 118 119
 119 120
 120 121
 121 122
 122 123
 123 124
 124 125
 125 126
 126 127
 127 128
 128 129
 129 130
 130 131
 131 132
 132 133
 133 134
 134 135
 135 136
 136 137
 137 138
 138 139
 139 140
 140 141
 141 142
 142 143
 143 144
 144 145
 145 146
 146 147
 147 148
 148 149
 149 150
 150 151
 151 152
 152 153
 153 154
 154 155
 155 156
 156 157
 157 158
 158 159
 159 160
 160 161
 161 162
 162 163
 163 164
 164 165
 165 166
 166 167
 167 168
 168 169
 169 170
 170 171
 171 172
 172 173
 173 174
 174 175
 175 176
 176 177
 177 178
 178 179
 179 180
 180 181
 181 182
 182 183
 183 184
 184 185
 185 186
 186 187
 187 188
 188 189
 189 190
 190 191
 191 192
 192 193
 193 194
 194 195
 195 196
 196 197
 197 198
 198 199
 199 200
 200 201
 201 202
 202 203
 203 204
 204 205
 205 206
 206 207
 207 208
 208 209
 209 210
 210 211
 211 212
 212 213
 213 214
 214 215
 215 216
 216 217
 217 218
 218 219
 219 220
 220 221
 221 222
 222 223
 223 224
 224 225
 225 226
 226 227
 227 228
 228 229
 229 230
 230 231
 231 232
 232 233
 233 234
 234 235
 235 236
 236 237
 237 238
 238 239
 239 240
 240 241
 241 242
 242 243
 243 244
 244 245
 245 246
 246 247
 247 248
 248 249
 249 250
 250 251
 251 252
 252 253
 253 254
 254 255
 255 256
 256 257
 257 258
 258 259
 259 260
 260 261
 261 262
 262 263
 263 264
 264 265
 265 266
 266 267
 267 268
 268 269
 269 270
 270 271
 271 272
 272 273
 273 274
 274 275
 275 276
 276 277
 277 278
 278 279
 279 280
 280 281
 281 282
 282 283
 283 284
 284 285
 285 286
 286 287
 287 288
 288 289
 289 290
 290 291
 291 292
 292 293
 293 294
 294 295
 295 296
 296 297
 297 298
 298 299
 299 300
 300 301
 301 302
 302 303
 303 304
 304 305
 305 306
 306 307
 307 308
 308 309
 309 310
 310 311
 311 312
 312 313
 313 314
 314 315
 315 316
 316 317
 317 318
 318 319
 319 320
 320 321
 321 322
 322 323
 323 324
 324 325
 325 326
 326 327
 327 328
 328 329
 329 330
 330 331
 331 332
 332 333
 333 334
 334 335
 335 336
 336 337
 337 338
 338 339
 339 340
 340 341
 341 342
 342 343
 343 344
 344 345
 345 346
 346 347
 347 348
 348 349
 349 350
 350 351
 351 352
 352 353
 353 354
 354 355
 355 356
 356 357
 357 358
 358 359
 359 360
 360 361
 361 362
 362 363
 363 364
 364 365
 365 366
 366 367
 367 368
 368 369
 369 370
 370 371
 371 372
 372 373
 373 374
 374 375
 375 376
 376 377
 377 378
 378 379
 379 380
 380 381
 381 382
 382 383
 383 384
 384 385
 385 386
 386 387
 387 388
 388 389
 389 390
 390 391
 391 392
 392 393
 393 394
 394 395
 395 396
 396 397
 397 398
 398 399
 399 400
 400 401
 401 402
 402 403
 403 404
 404 405
 405 406
 406 407
 407 408
 408 409
 409 410
 410 411
 411 412
 412 413
 413 414
 414 415
 415 416
 416 417
 417 418
 418 419
 419 420
 420 421
 421 422
 422 423
 423 424
 424 425
 425 426
 426 427
 427 428
 428 429
 429 430
 430 431
 431 432
 432 433
 433 434
 434 435
 435 436
 436 437
 437 438
 438 439
 439 440
 440 441
 441 442
 442 443
 443 444
 444 445
 445 446
 446 447
 447 448
 448 449
 449 450
 450 451
 451 452
 452 453
 453 454
 454 455
 455 456
 456 457
 457 458
 458 459
 459 460
 460 461
 461 462
 462 463
 463 464
 464 465
 465 466
 466 467
 467 468
 468 469
 469 470
 470 471
 471 472
 472 473
 473 474
 474 475
 475 476
 476 477
 477 478
 478 479
 479 480
 480 481
 481 482
 482 483
 483 484
 484 485
 485 486
 486 487
 487 488
 488 489
 489 490
 490 491
 491 492
 492 493
 493 494
 494 495
 495 496
 496 497
 497 498
 498 499
 499 500
 500 501
 501 502
 502 503
 503 504
 504 505
 505 506
 506 507
 507 508
 508 509
 509 510
 510 511
 511 512
 512 513
 513 514
 514 515
 515 516
 516 517
 517 518
 518 519
 519 520
 520 521
 521 522
 522 523
 523 524
 524 525
 525 526
 526 527
 527 528
 528 529
 529 530
 530 531
 531 532
 532 533
 533 534
 534 535
 535 536
 536 537
 537 538
 538 539
 539 540
 540 541
 541 542
 542 543
 543 544
 544 545
 545 546
 546 547
 547 548
 548 549
 549 550
 550 551
 551 552
 552 553
 553 554
 554 555
 555 556
 556 557
 557 558
 558 559
 559 560
 560 561
 561 562
 562 563
 563 564
 564 565
 565 566
 566 567
 567 568
 568 569
 569 570
 570 571
 571 572
 572 573
 573 574
 574 575
 575 576
 576 577
 577 578
 578 579
 579 580
 580 581
 581 582
 582 583
 583 584
 584 585
 585 586
 586 587
 587 588
 588 589
 589 590
 590 591
 591 592
 592 593
 593 594
 594 595
 595 596
 596 597
 597 598
 598 599
 599 600
 600 601
 601 602
 602 603
 603 604
 604 605
 605 606
 606 607
 607 608
 608 609
 609 610
 610 611
 611 612
 612 613
 613 614
 614 615
 615 616
 616 617
 617 618
 618 619
 619 620
 620 621
 621 622
 622 623
 623 624
 624 625
 625 626
 626 627
 627 628
 628 629
 629 630
 630 631
 631 632
 632 633
 633 634
 634 635
 635 636
 636 637
 637 638
 638 639
 639 640
 640 641
 641 642
 642 643
 643 644
 644 645
 645 646
 646 647
 647 648
 648 649
 649 650
 650 651
 651 652
 652 653
 653 654
 654 655
 655 656
 656 657
 657 658
 658 659
 659 660
 660 661
 661 662
 662 663
 663 664
 664 665
 665 666
 666 667
 667 668
 668 669
 669 670
 670 671
 671 672
 672 673
 673 674
 674 675
 675 676
 676 677
 677 678
 678 679
 679 680
 680 681
 681 682
 682 683
 683 684
 684 685
 685 686
 686 687
 687 688
 688 689
 689 690
 690 691
 691 692
 692 693
 693 694
 694 695
 695 696
 696 697
 697 698
 698 699
 699 700
 700 701
 701 702
 702 703
 703 704
 704 705
 705 706
 706 707
 707 708
 708 709
 709 710
 710 711
 711 712
 712 713
 713 714
 714 715
 715 716
 716 717
 717 718
 718 719
 719 720
 720 721
 721 722
 722 723
 723 724
 724 725
 725 726
 726 727
 727 728
 728 729
 729 730
 730 731
 731 732
 732 733
 733 734
 734 735
 735 736
 736 737
 737 738
 738 739
 739 740
 740 741
 741 742
 742 743
 743 744
 744 745
 745 746
 746 747
 747 748
 748 749
 749 750
 750 751
 751 752
 752 753
 753 754
 754 755
 755 756
 756 757
 757 758
 758 759
 759 760
 760 761
 761 762
 762 763
 763 764
 764 765
 765 766
 766 767
 767 768
 768 769
 769 770
 770 771
 771 772
 772 773
 773 774
 774 775
 775 776
 776 777
 777 778
 778 779
 779 780
 780 781
 781 782
 782 783
 783 784
 784 785
 785 786
 786 787
 787 788
 788 789
 789 790
 790 791
 791 792
 792 793
 793 794
 794 795
 795 796
 796 797
 797 798
 798 799
 799 800
 800 801
 801 802
 802 803
 803 804
 804 805
 805 806
 806 807
 807 808
 808 809
 809 810
 810 811
 811 812
 812 813
 813 814
 814 815
 815 816
 816 817
 817 818
 818 819
 819 820
 820 821
 821 822
 822 823
 823 824
 824 825
 825 826
 826 827
 827 828
 828 829
 829 830
 830 831
 831 832
 832 833
 833 834
 834 835
 835 836
 836 837
 837 838
 838 839
 839 840
 840 841
 841 842
 842 843
 843 844
 844 845
 845 846
 846 847
 847 848
 848 849
 849 850
 850 851
 851 852
 852 853
 853 854
 854 855
 855 856
 856 857
 857 858
 858 859
 859 860
 860 861
 861 862
 862 863
 863 864
 864 865
 865 866
 866 867
 867 868
 868 869
 869 870
 870 871
 871 872
 872 873
 873 874
 874 875
 875 876
 876 877
 877 878
 878 879
 879 880
 880 881
 881 882
 882 883
 883 884
 884 885
 885 886
 886 887
 887 888
 888 889
 889 890
 890 891
 891 892
 892 893
 893 894
 894 895
 895 896
 896 897
 897 898
 898 899
 899 900
 900 901
 901 902
 902 903
 903 904
 904 905
 905 906
 906 907
 907 908
 908 909
 909 910
 910 911
 911 912
 912 913
 913 914
 914 915
 915 916
 916 917
 917 918
 918 919
 919 920
 920 921
 921 922
 922 923
 923 924
 924 925
 925 926
 926 927
 927 928
 928 929
 929 930
 930 931
 931 932
 932 933
 933 934
 934 935
 935 936
 936 937
 937 938
 938 939
 939 940
 940 941
 941 942
 942 943
 943 944
 944 945
 945 946
 946 947
 947 948
 948 949
 949 950
 950 951
 951 952
 952 953
 953 954
 954 955
 955 956
 956 957
 957 958
 958 959
 959 960
 960 961
 961 962
 962 963
 963 964
 964 965
 965 966
 966 967
 967 968
 968 969
 969 970
 970 971
 971 972
 972 973
 973 974
 974 975
 975 976
 976 977
 977 978
 978 979
 979 980
 980 981
 981 982
 982 983
 983 984
 984 985
 985 986
 986 987
 987 988
 988 989
 989 990
 990 991
 991 992
 992 993
 993 994
 994 995
 995 996
 996 997
 997 998
 998 999
 999   0
