ply
format ascii 1.0
comment Periodos: [11, 2, 3]
comment Fases: [0.5, 0.2, 3.6]
comment Alcance: 0.05906699840514778
element vertex 500
property float x
property float y
property float z
element face 0
property list uchar int vertex_indices
element edge 500
property int32 vertex1 
property int32 vertex2
end_header
-0.8775825619 0.9800665778 0.8967584163
-0.8031514911 0.9747644831 0.8794425686
-0.7133985799 0.9688467062 0.8608769849
-0.6100360581 0.9623169849 0.8410880478
-0.4950357877 0.9551794436 0.8201038786
-0.3705916460 0.9474385905 0.7979542970
-0.2390776724 0.9390993149 0.7746707786
-0.1030027785 0.9301668840 0.7502864106
0.0350371147 0.9206469398 0.7248358446
0.1724085997 0.9105454952 0.6983552472
0.3064910201 0.8998689306 0.6708822488
0.4347264659 0.8886239895 0.6424558900
0.5546685702 0.8768177744 0.6131165662
0.6640291798 0.8644577425 0.5829059702
0.7607220061 0.8515517005 0.5518670330
0.8429024256 0.8381078002 0.5200438625
0.9090026702 0.8241345330 0.4874816812
0.9577617359 0.8096407248 0.4542267618
0.9882494386 0.7946355302 0.4203263613
0.9998841598 0.7791284267 0.3858286540
0.9924439424 0.7631292090 0.3507826631
0.9660707244 0.7466479826 0.3152381909
0.9212676316 0.7296951572 0.2792457479
0.8588893793 0.7122814408 0.2428564814
0.7801259667 0.6944178322 0.2061221026
0.6864799751 0.6761156144 0.1690948130
0.5797379030 0.6573863474 0.1318272304
0.4619360847 0.6382418612 0.0943723141
0.3353218432 0.6186942477 0.0567832896
0.2023106169 0.5987558537 0.0191135730
0.0654398810 0.5784392726 -0.0185833052
-0.0726792612 0.5577573369 -0.0562537754
-0.2094118904 0.5367231097 -0.0938443059
-0.3421495379 0.5153498767 -0.1313014785
-0.4683599477 0.4936511376 -0.1685720645
-0.5856353852 0.4716405980 -0.2056031005
-0.6917385695 0.4493321600 -0.2423419631
-0.7846453543 0.4267399141 -0.2787364446
-0.8625833430 0.4038781303 -0.3147348263
-0.9240657011 0.3807612483 -0.3502859526
-0.9679195206 0.3574038693 -0.3853393034
-0.9933081954 0.3338207465 -0.4198450660
-0.9997473823 0.3100267752 -0.4537542058
-0.9871142397 0.2860369845 -0.4870185360
-0.9556497721 0.2618665266 -0.5195907862
-0.9059542318 0.2375306682 -0.5514246695
-0.8389756680 0.2130447804 -0.5824749481
-0.7559918407 0.1884243289 -0.6126974980
-0.6585858447 0.1636848645 -0.6420493712
-0.5486159086 0.1388420133 -0.6704888571
-0.4281799454 0.1139114665 -0.6979755417
-0.2995755297 0.0889089708 -0.7244703648
-0.1652560671 0.0638503183 -0.7499356759
-0.0277839899 0.0387513365 -0.7743352874
0.1102181265 0.0136278786 -0.7976345260
0.2461175954 -0.0115041870 -0.8198002824
0.3773218423 -0.0366289863 -0.8408010576
0.5013278644 -0.0617306500 -0.8606070086
0.6157699803 -0.0867933232 -0.8791899899
0.7184649608 -0.1118011759 -0.8965235942
0.8074536785 -0.1367384127 -0.9125831893
0.8810384823 -0.1615892825 -0.9273459538
0.9378155841 -0.1863380890 -0.9407909090
0.9767018386 -0.2109692004 -0.9528989488
0.9969554070 -0.2354670591 -0.9636528671
0.9981899090 -0.2598161918 -0.9730373819
0.9803817937 -0.2840012191 -0.9810391573
0.9438707892 -0.3080068650 -0.9876468224
0.8893534215 -0.3318179673 -0.9928509874
0.8178697263 -0.3554194862 -0.9966442567
0.7307834088 -0.3787965145 -0.9990212400
0.6297558277 -0.4019342868 -0.9999785595
0.5167143010 -0.4248181888 -0.9995148548
0.3938153389 -0.4474337666 -0.9976307847
0.2634035030 -0.4697667356 -0.9943290267
0.1279666793 -0.4918029898 -0.9896142727
-0.0099113838 -0.5135286108 -0.9834932227
-0.1476003659 -0.5349298760 -0.9759745751
-0.2824735538 -0.5559932681 -0.9670690141
-0.4119579519 -0.5767054829 -0.9567891952
-0.5335833668 -0.5970534382 -0.9451497264
-0.6450295326 -0.6170242817 -0.9321671482
-0.7441703741 -0.6366053995 -0.9178599095
-0.8291145668 -0.6557844236 -0.9022483416
-0.8982416177 -0.6745492403 -0.8853546294
-0.9502327798 -0.6928879972 -0.8672027799
-0.9840962099 -0.7107891112 -0.8478185878
-0.9991858904 -0.7282412755 -0.8272295990
-0.9952139532 -0.7452334671 -0.8054650718
-0.9722561715 -0.7617549532 -0.7825559346
-0.9307505143 -0.7777952986 -0.7585347426
-0.8714887912 -0.7933443718 -0.7334356312
-0.7956015470 -0.8083923516 -0.7072942676
-0.7045364938 -0.8229297336 -0.6801478002
-0.6000308932 -0.8369473355 -0.6520348056
-0.4840784142 -0.8504363035 -0.6229952338
-0.3588910992 -0.8633881177 -0.5930703517
-0.2268571655 -0.8757945974 -0.5623026842
-0.0904954438 -0.8876479066 -0.5307359537
0.0475926728 -0.8989405583 -0.4984150185
0.1847728570 -0.9096654198 -0.4653858083
0.3184281019 -0.9198157172 -0.4316952593
0.4460086466 -0.9293850393 -0.3973912478
0.5650806180 -0.9383673418 -0.3625225215
0.6733724626 -0.9467569514 -0.3271386309
0.7688182806 -0.9545485691 -0.2912898585
0.8495972380 -0.9617372734 -0.2550271472
0.9141683026 -0.9683185238 -0.2184020283
0.9612996427 -0.9742881635 -0.1814665482
0.9900921266 -0.9796424219 -0.1442731943
0.9999964760 -0.9843779172 -0.1068748202
0.9908237439 -0.9884916583 -0.0693245712
0.9627489200 -0.9919810468 -0.0316758081
0.9163075919 -0.9948438789 0.0060179680
0.8523857277 -0.9970783462 0.0437031922
0.7722027743 -0.9986830375 0.0813263118
0.6772883939 -0.9996569392 0.1188338623
0.5694532821 -0.9999994362 0.1561725433
0.4507546254 -0.9997103120 0.1932892947
0.3234568557 -0.9987897494 0.2301313713
0.1899884515 -0.9972383298 0.2666464187
0.0528956094 -0.9950570331 0.3027825470
-0.0852063301 -0.9922472370 0.3384884046
-0.2216827758 -0.9888107163 0.3737132517
-0.3539301462 -0.9847496416 0.4084070319
-0.4794255386 -0.9800665778 0.4425204433
-0.5957748588 -0.9747644831 0.4760050089
-0.7007584934 -0.9688467062 0.5088131454
-0.7923736542 -0.9623169849 0.5408982306
-0.8688725850 -0.9551794436 0.5722146697
-0.9287959044 -0.9474385905 0.6027179606
-0.9710004462 -0.9390993149 0.6323647562
-0.9946810683 -0.9301668840 0.6611129269
-0.9993860118 -0.9206469398 0.6889216199
-0.9850255199 -0.9105454952 0.7157513176
-0.9518735497 -0.8998689306 0.7415638936
-0.9005625463 -0.8886239895 0.7663226667
-0.8320713775 -0.8768177744 0.7899924533
-0.7477066593 -0.8644577425 0.8125396174
-0.6490778301 -0.8515517005 0.8339321183
-0.5380664466 -0.8381078002 0.8541395560
-0.4167902896 -0.8241345330 0.8731332146
-0.2875629623 -0.8096407248 0.8908861032
-0.1528497536 -0.7946355302 0.9073729939
-0.0152206074 -0.7791284267 0.9225704579
0.1226989045 -0.7631292090 0.9364568988
0.2582776712 -0.7466479826 0.9490125832
0.3889292364 -0.7296951572 0.9602196688
0.5121611407 -0.7122814408 0.9700622297
0.6256224709 -0.6944178322 0.9785262791
0.7271487082 -0.6761156144 0.9855997891
0.8148030215 -0.6573863474 0.9912727078
0.8869132165 -0.6382418612 0.9955369739
0.9421036363 -0.6186942477 0.9983865274
0.9793214050 -0.5987558537 0.9998173190
0.9978565137 -0.5784392726 0.9998273155
0.9973553654 -0.5577573369 0.9984165026
0.9778275207 -0.5367231097 0.9955868853
0.9396455149 -0.5153498767 0.9913424846
0.8835377521 -0.4936511376 0.9856893319
0.8105746083 -0.4716405980 0.9786354608
0.7221480122 -0.4493321600 0.9701908951
0.6199448911 -0.4267399141 0.9603676351
0.5059149893 -0.4038781303 0.9491796401
0.3822336720 -0.3807612483 0.9366428089
0.2512604261 -0.3574038693 0.9227749570
0.1154938478 -0.3338207465 0.9075957914
-0.0224760238 -0.3100267752 0.8911268825
-0.1600171170 -0.2860369845 0.8733916336
-0.2945055399 -0.2618665266 0.8544152474
-0.4233756368 -0.2375306682 0.8342246903
-0.5441689338 -0.2130447804 0.8128486543
-0.6545810392 -0.1884243289 0.7903175159
-0.7525056048 -0.1636848645 0.7666632931
-0.8360745091 -0.1388420133 0.7419195997
-0.9036934958 -0.1139114665 0.7161215981
-0.9540725874 -0.0889089708 0.6893059484
-0.9862506944 -0.0638503183 0.6615107573
-0.9996139504 -0.0387513365 0.6327755232
-0.9939074225 -0.0136278786 0.6031410804
-0.9692399750 0.0115041870 0.5726495412
-0.9260821925 0.0366289863 0.5413442356
-0.8652574024 0.0617306500 0.5092696503
-0.7879259682 0.0867933232 0.4764713649
-0.6955631532 0.1118011759 0.4429959876
-0.5899309766 0.1367384127 0.4088910888
-0.4730445991 0.1615892825 0.3742051334
-0.3471338794 0.1863380890 0.3389874120
-0.2146008352 0.2109692004 0.3032879710
-0.0779738189 0.2354670591 0.2671575412
0.0601407155 0.2598161918 0.2306474658
0.1971079365 0.2840012191 0.1938096278
0.3303149001 0.3080068650 0.1566963757
0.4572203973 0.3318179673 0.1193604495
0.5754034331 0.3554194862 0.0818549056
0.6826094120 0.3787965145 0.0442330413
0.7767931497 0.4019342868 0.0065483195
0.8561578891 0.4248181888 -0.0311457078
0.9191895772 0.4474337666 -0.0687954754
0.9646857492 0.4697667356 -0.1063474808
0.9917784677 0.4918029898 -0.1437483607
0.9999508810 0.5135286108 -0.1809449663
0.9890470828 0.5349298760 -0.2178844391
0.9592750864 0.5559932681 -0.2545142863
0.9112028566 0.5767054829 -0.2907824547
0.8457474745 0.5970534382 -0.3266374054
0.7641576422 0.6170242817 -0.3620281864
0.6679898609 0.6366053995 -0.3969045056
0.5590787378 0.6557844236 -0.4312168017
0.4395019866 0.6745492403 -0.4649163152
0.3115407906 0.6928879972 -0.4979551571
0.1776362847 0.7107891112 -0.5302863776
0.0403429850 0.7282412755 -0.5618640320
-0.0977199439 0.7452334671 -0.5926432470
-0.2339186548 0.7617549532 -0.6225802834
-0.3656548648 0.7777952986 -0.6516325992
-0.4904154227 0.7933443718 -0.6797589094
-0.6058202526 0.8083923516 -0.7069192450
-0.7096677595 0.8229297336 -0.7330750097
-0.7999768291 0.8369473355 -0.7581890347
-0.8750246219 0.8504363035 -0.7822256316
-0.9333794399 0.8633881177 -0.8051506430
-0.9739280397 0.8757945974 -0.8269314914
-0.9958968695 0.8876479066 -0.8475372248
-0.9988668267 0.8989405583 -0.8669385614
-0.9827812530 0.9096654198 -0.8851079310
-0.9479470154 0.9198157172 -0.9020195137
-0.8950286516 0.9293850393 -0.9176492773
-0.8250356932 0.9383673418 -0.9319750111
-0.7393034064 0.9467569514 -0.9449763575
-0.6394673185 0.9545485691 -0.9566348407
-0.5274320176 0.9617372734 -0.9669338934
-0.4053348178 0.9683185238 -0.9758588802
-0.2755049853 0.9742881635 -0.9833971181
-0.1404193033 0.9796424219 -0.9895378949
-0.0026548215 0.9843779172 -0.9942724842
0.1351603069 0.9884916583 -0.9975941579
0.2703969619 0.9919810468 -0.9994981957
0.4004752140 0.9948438789 -0.9999818919
0.5229135408 0.9970783462 -0.9990445591
0.6353761683 0.9986830375 -0.9966875293
0.7357176303 0.9996569392 -0.9929141520
0.8220236977 0.9999994362 -0.9877297893
0.8926478968 0.9997103120 -0.9811418086
0.9462429194 0.9987897494 -0.9731595717
0.9817863252 0.9972383298 -0.9637944217
0.9986000473 0.9950570331 -0.9530596672
0.9963633280 0.9922472370 -0.9409705627
0.9751188373 0.9888107163 -0.9275442876
0.9352718597 0.9847496416 -0.9127999213
0.8775825619 0.9800665778 -0.8967584163
0.8031514911 0.9747644831 -0.8794425686
0.7133985799 0.9688467062 -0.8608769849
0.6100360581 0.9623169849 -0.8410880478
0.4950357877 0.9551794436 -0.8201038786
0.3705916460 0.9474385905 -0.7979542970
0.2390776724 0.9390993149 -0.7746707786
0.1030027785 0.9301668840 -0.7502864106
-0.0350371147 0.9206469398 -0.7248358446
-0.1724085997 0.9105454952 -0.6983552472
-0.3064910201 0.8998689306 -0.6708822488
-0.4347264659 0.8886239895 -0.6424558900
-0.5546685702 0.8768177744 -0.6131165662
-0.6640291798 0.8644577425 -0.5829059702
-0.7607220061 0.8515517005 -0.5518670330
-0.8429024256 0.8381078002 -0.5200438625
-0.9090026702 0.8241345330 -0.4874816812
-0.9577617359 0.8096407248 -0.4542267618
-0.9882494386 0.7946355302 -0.4203263613
-0.9998841598 0.7791284267 -0.3858286540
-0.9924439424 0.7631292090 -0.3507826631
-0.9660707244 0.7466479826 -0.3152381909
-0.9212676316 0.7296951572 -0.2792457479
-0.8588893793 0.7122814408 -0.2428564814
-0.7801259667 0.6944178322 -0.2061221026
-0.6864799751 0.6761156144 -0.1690948130
-0.5797379030 0.6573863474 -0.1318272304
-0.4619360847 0.6382418612 -0.0943723141
-0.3353218432 0.6186942477 -0.0567832896
-0.2023106169 0.5987558537 -0.0191135730
-0.0654398810 0.5784392726 0.0185833052
0.0726792612 0.5577573369 0.0562537754
0.2094118904 0.5367231097 0.0938443059
0.3421495379 0.5153498767 0.1313014785
0.4683599477 0.4936511376 0.1685720645
0.5856353852 0.4716405980 0.2056031005
0.6917385695 0.4493321600 0.2423419631
0.7846453543 0.4267399141 0.2787364446
0.8625833430 0.4038781303 0.3147348263
0.9240657011 0.3807612483 0.3502859526
0.9679195206 0.3574038693 0.3853393034
0.9933081954 0.3338207465 0.4198450660
0.9997473823 0.3100267752 0.4537542058
0.9871142397 0.2860369845 0.4870185360
0.9556497721 0.2618665266 0.5195907862
0.9059542318 0.2375306682 0.5514246695
0.8389756680 0.2130447804 0.5824749481
0.7559918407 0.1884243289 0.6126974980
0.6585858447 0.1636848645 0.6420493712
0.5486159086 0.1388420133 0.6704888571
0.4281799454 0.1139114665 0.6979755417
0.2995755297 0.0889089708 0.7244703648
0.1652560671 0.0638503183 0.7499356759
0.0277839899 0.0387513365 0.7743352874
-0.1102181265 0.0136278786 0.7976345260
-0.2461175954 -0.0115041870 0.8198002824
-0.3773218423 -0.0366289863 0.8408010576
-0.5013278644 -0.0617306500 0.8606070086
-0.6157699803 -0.0867933232 0.8791899899
-0.7184649608 -0.1118011759 0.8965235942
-0.8074536785 -0.1367384127 0.9125831893
-0.8810384823 -0.1615892825 0.9273459538
-0.9378155841 -0.1863380890 0.9407909090
-0.9767018386 -0.2109692004 0.9528989488
-0.9969554070 -0.2354670591 0.9636528671
-0.9981899090 -0.2598161918 0.9730373819
-0.9803817937 -0.2840012191 0.9810391573
-0.9438707892 -0.3080068650 0.9876468224
-0.8893534215 -0.3318179673 0.9928509874
-0.8178697263 -0.3554194862 0.9966442567
-0.7307834088 -0.3787965145 0.9990212400
-0.6297558277 -0.4019342868 0.9999785595
-0.5167143010 -0.4248181888 0.9995148548
-0.3938153389 -0.4474337666 0.9976307847
-0.2634035030 -0.4697667356 0.9943290267
-0.1279666793 -0.4918029898 0.9896142727
0.0099113838 -0.5135286108 0.9834932227
0.1476003659 -0.5349298760 0.9759745751
0.2824735538 -0.5559932681 0.9670690141
0.4119579519 -0.5767054829 0.9567891952
0.5335833668 -0.5970534382 0.9451497264
0.6450295326 -0.6170242817 0.9321671482
0.7441703741 -0.6366053995 0.9178599095
0.8291145668 -0.6557844236 0.9022483416
0.8982416177 -0.6745492403 0.8853546294
0.9502327798 -0.6928879972 0.8672027799
0.9840962099 -0.7107891112 0.8478185878
0.9991858904 -0.7282412755 0.8272295990
0.9952139532 -0.7452334671 0.8054650718
0.9722561715 -0.7617549532 0.7825559346
0.9307505143 -0.7777952986 0.7585347426
0.8714887912 -0.7933443718 0.7334356312
0.7956015470 -0.8083923516 0.7072942676
0.7045364938 -0.8229297336 0.6801478002
0.6000308932 -0.8369473355 0.6520348056
0.4840784142 -0.8504363035 0.6229952338
0.3588910992 -0.8633881177 0.5930703517
0.2268571655 -0.8757945974 0.5623026842
0.0904954438 -0.8876479066 0.5307359537
-0.0475926728 -0.8989405583 0.4984150185
-0.1847728570 -0.9096654198 0.4653858083
-0.3184281019 -0.9198157172 0.4316952593
-0.4460086466 -0.9293850393 0.3973912478
-0.5650806180 -0.9383673418 0.3625225215
-0.6733724626 -0.9467569514 0.3271386309
-0.7688182806 -0.9545485691 0.2912898585
-0.8495972380 -0.9617372734 0.2550271472
-0.9141683026 -0.9683185238 0.2184020283
-0.9612996427 -0.9742881635 0.1814665482
-0.9900921266 -0.9796424219 0.1442731943
-0.9999964760 -0.9843779172 0.1068748202
-0.9908237439 -0.9884916583 0.0693245712
-0.9627489200 -0.9919810468 0.0316758081
-0.9163075919 -0.9948438789 -0.0060179680
-0.8523857277 -0.9970783462 -0.0437031922
-0.7722027743 -0.9986830375 -0.0813263118
-0.6772883939 -0.9996569392 -0.1188338623
-0.5694532821 -0.9999994362 -0.1561725433
-0.4507546254 -0.9997103120 -0.1932892947
-0.3234568557 -0.9987897494 -0.2301313713
-0.1899884515 -0.9972383298 -0.2666464187
-0.0528956094 -0.9950570331 -0.3027825470
0.0852063301 -0.9922472370 -0.3384884046
0.2216827758 -0.9888107163 -0.3737132517
0.3539301462 -0.9847496416 -0.4084070319
0.4794255386 -0.9800665778 -0.4425204433
0.5957748588 -0.9747644831 -0.4760050089
0.7007584934 -0.9688467062 -0.5088131454
0.7923736542 -0.9623169849 -0.5408982306
0.8688725850 -0.9551794436 -0.5722146697
0.9287959044 -0.9474385905 -0.6027179606
0.9710004462 -0.9390993149 -0.6323647562
0.9946810683 -0.9301668840 -0.6611129269
0.9993860118 -0.9206469398 -0.6889216199
0.9850255199 -0.9105454952 -0.7157513176
0.9518735497 -0.8998689306 -0.7415638936
0.9005625463 -0.8886239895 -0.7663226667
0.8320713775 -0.8768177744 -0.7899924533
0.7477066593 -0.8644577425 -0.8125396174
0.6490778301 -0.8515517005 -0.8339321183
0.5380664466 -0.8381078002 -0.8541395560
0.4167902896 -0.8241345330 -0.8731332146
0.2875629623 -0.8096407248 -0.8908861032
0.1528497536 -0.7946355302 -0.9073729939
0.0152206074 -0.7791284267 -0.9225704579
-0.1226989045 -0.7631292090 -0.9364568988
-0.2582776712 -0.7466479826 -0.9490125832
-0.3889292364 -0.7296951572 -0.9602196688
-0.5121611407 -0.7122814408 -0.9700622297
-0.6256224709 -0.6944178322 -0.9785262791
-0.7271487082 -0.6761156144 -0.9855997891
-0.8148030215 -0.6573863474 -0.9912727078
-0.8869132165 -0.6382418612 -0.9955369739
-0.9421036363 -0.6186942477 -0.9983865274
-0.9793214050 -0.5987558537 -0.9998173190
-0.9978565137 -0.5784392726 -0.9998273155
-0.9973553654 -0.5577573369 -0.9984165026
-0.9778275207 -0.5367231097 -0.9955868853
-0.9396455149 -0.5153498767 -0.9913424846
-0.8835377521 -0.4936511376 -0.9856893319
-0.8105746083 -0.4716405980 -0.9786354608
-0.7221480122 -0.4493321600 -0.9701908951
-0.6199448911 -0.4267399141 -0.9603676351
-0.5059149893 -0.4038781303 -0.9491796401
-0.3822336720 -0.3807612483 -0.9366428089
-0.2512604261 -0.3574038693 -0.9227749570
-0.1154938478 -0.3338207465 -0.9075957914
0.0224760238 -0.3100267752 -0.8911268825
0.1600171170 -0.2860369845 -0.8733916336
0.2945055399 -0.2618665266 -0.8544152474
0.4233756368 -0.2375306682 -0.8342246903
0.5441689338 -0.2130447804 -0.8128486543
0.6545810392 -0.1884243289 -0.7903175159
0.7525056048 -0.1636848645 -0.7666632931
0.8360745091 -0.1388420133 -0.7419195997
0.9036934958 -0.1139114665 -0.7161215981
0.9540725874 -0.0889089708 -0.6893059484
0.9862506944 -0.0638503183 -0.6615107573
0.9996139504 -0.0387513365 -0.6327755232
0.9939074225 -0.0136278786 -0.6031410804
0.9692399750 0.0115041870 -0.5726495412
0.9260821925 0.0366289863 -0.5413442356
0.8652574024 0.0617306500 -0.5092696503
0.7879259682 0.0867933232 -0.4764713649
0.6955631532 0.1118011759 -0.4429959876
0.5899309766 0.1367384127 -0.4088910888
0.4730445991 0.1615892825 -0.3742051334
0.3471338794 0.1863380890 -0.3389874120
0.2146008352 0.2109692004 -0.3032879710
0.0779738189 0.2354670591 -0.2671575412
-0.0601407155 0.2598161918 -0.2306474658
-0.1971079365 0.2840012191 -0.1938096278
-0.3303149001 0.3080068650 -0.1566963757
-0.4572203973 0.3318179673 -0.1193604495
-0.5754034331 0.3554194862 -0.0818549056
-0.6826094120 0.3787965145 -0.0442330413
-0.7767931497 0.4019342868 -0.0065483195
-0.8561578891 0.4248181888 0.0311457078
-0.9191895772 0.4474337666 0.0687954754
-0.9646857492 0.4697667356 0.1063474808
-0.9917784677 0.4918029898 0.1437483607
-0.9999508810 0.5135286108 0.1809449663
-0.9890470828 0.5349298760 0.2178844391
-0.9592750864 0.5559932681 0.2545142863
-0.9112028566 0.5767054829 0.2907824547
-0.8457474745 0.5970534382 0.3266374054
-0.7641576422 0.6170242817 0.3620281864
-0.6679898609 0.6366053995 0.3969045056
-0.5590787378 0.6557844236 0.4312168017
-0.4395019866 0.6745492403 0.4649163152
-0.3115407906 0.6928879972 0.4979551571
-0.1776362847 0.7107891112 0.5302863776
-0.0403429850 0.7282412755 0.5618640320
0.0977199439 0.7452334671 0.5926432470
0.2339186548 0.7617549532 0.6225802834
0.3656548648 0.7777952986 0.6516325992
0.4904154227 0.7933443718 0.6797589094
0.6058202526 0.8083923516 0.7069192450
0.7096677595 0.8229297336 0.7330750097
0.7999768291 0.8369473355 0.7581890347
0.8750246219 0.8504363035 0.7822256316
0.9333794399 0.8633881177 0.8051506430
0.9739280397 0.8757945974 0.8269314914
0.9958968695 0.8876479066 0.8475372248
0.9988668267 0.8989405583 0.8669385614
0.9827812530 0.9096654198 0.8851079310
0.9479470154 0.9198157172 0.9020195137
0.8950286516 0.9293850393 0.9176492773
0.8250356932 0.9383673418 0.9319750111
0.7393034064 0.9467569514 0.9449763575
0.6394673185 0.9545485691 0.9566348407
0.5274320176 0.9617372734 0.9669338934
0.4053348178 0.9683185238 0.9758588802
0.2755049853 0.9742881635 0.9833971181
0.1404193033 0.9796424219 0.9895378949
0.0026548215 0.9843779172 0.9942724842
-0.1351603069 0.9884916583 0.9975941579
-0.2703969619 0.9919810468 0.9994981957
-0.4004752140 0.9948438789 0.9999818919
-0.5229135408 0.9970783462 0.9990445591
-0.6353761683 0.9986830375 0.9966875293
-0.7357176303 0.9996569392 0.9929141520
-0.8220236977 0.9999994362 0.9877297893
-0.8926478968 0.9997103120 0.9811418086
-0.9462429194 0.9987897494 0.9731595717
-0.9817863252 0.9972383298 0.9637944217
-0.9986000473 0.9950570331 0.9530596672
-0.9963633280 0.9922472370 0.9409705627
-0.9751188373 0.9888107163 0.9275442876
-0.9352718597 0.9847496416 0.9127999213
 0 1
 1 2
 2 3
 3 4
 4 5
 5 6
 6 7
 7 8
 8 9
  9 10
 10 11
 11 12
 12 13
 13 14
 14 15
 15 16
 16 17
 17 18
 18 19
 19 20
 20 21
 21 22
 22 23
 23 24
 24 25
 25 26
 26 27
 27 28
 28 29
 29 30
 30 31
 31 32
 32 33
 33 34
 34 35
 35 36
 36 37
 37 38
 38 39
 39 40
 40 41
 41 42
 42 43
 43 44
 44 45
 45 46
 46 47
 47 48
 48 49
 49 50
 50 51
 51 52
 52 53
 53 54
 54 55
 55 56
 56 57
 57 58
 58 59
 59 60
 60 61
 61 62
 62 63
 63 64
 64 65
 65 66
 66 67
 67 68
 68 69
 69 70
 70 71
 71 72
 72 73
 73 74
 74 75
 75 76
 76 77
 77 78
 78 79
 79 80
 80 81
 81 82
 82 83
 83 84
 84 85
 85 86
 86 87
 87 88
 88 89
 89 90
 90 91
 91 92
 92 93
 93 94
 94 95
 95 96
 96 97
 97 98
 98 99
  99 100
 100 101
 101 102
 102 103
 103 104
 104 105
 105 106
 106 107
 107 108
 108 109
 109 110
 110 111
 111 112
 112 113
 113 114
 114 115
 115 116
 116 117
 117 118
 118 119
 119 120
 120 121
 121 122
 122 123
 123 124
 124 125
 125 126
 126 127
 127 128
 128 129
 129 130
 130 131
 131 132
 132 133
 133 134
 134 135
 135 136
 136 137
 137 138
 138 139
 139 140
 140 141
 141 142
 142 143
 143 144
 144 145
 145 146
 146 147
 147 148
 148 149
 149 150
 150 151
 151 152
 152 153
 153 154
 154 155
 155 156
 156 157
 157 158
 158 159
 159 160
 160 161
 161 162
 162 163
 163 164
 164 165
 165 166
 166 167
 167 168
 168 169
 169 170
 170 171
 171 172
 172 173
 173 174
 174 175
 175 176
 176 177
 177 178
 178 179
 179 180
 180 181
 181 182
 182 183
 183 184
 184 185
 185 186
 186 187
 187 188
 188 189
 189 190
 190 191
 191 192
 192 193
 193 194
 194 195
 195 196
 196 197
 197 198
 198 199
 199 200
 200 201
 201 202
 202 203
 203 204
 204 205
 205 206
 206 207
 207 208
 208 209
 209 210
 210 211
 211 212
 212 213
 213 214
 214 215
 215 216
 216 217
 217 218
 218 219
 219 220
 220 221
 221 222
 222 223
 223 224
 224 225
 225 226
 226 227
 227 228
 228 229
 229 230
 230 231
 231 232
 232 233
 233 234
 234 235
 235 236
 236 237
 237 238
 238 239
 239 240
 240 241
 241 242
 242 243
 243 244
 244 245
 245 246
 246 247
 247 248
 248 249
 249 250
 250 251
 251 252
 252 253
 253 254
 254 255
 255 256
 256 257
 257 258
 258 259
 259 260
 260 261
 261 262
 262 263
 263 264
 264 265
 265 266
 266 267
 267 268
 268 269
 269 270
 270 271
 271 272
 272 273
 273 274
 274 275
 275 276
 276 277
 277 278
 278 279
 279 280
 280 281
 281 282
 282 283
 283 284
 284 285
 285 286
 286 287
 287 288
 288 289
 289 290
 290 291
 291 292
 292 293
 293 294
 294 295
 295 296
 296 297
 297 298
 298 299
 299 300
 300 301
 301 302
 302 303
 303 304
 304 305
 305 306
 306 307
 307 308
 308 309
 309 310
 310 311
 311 312
 312 313
 313 314
 314 315
 315 316
 316 317
 317 318
 318 319
 319 320
 320 321
 321 322
 322 323
 323 324
 324 325
 325 326
 326 327
 327 328
 328 329
 329 330
 330 331
 331 332
 332 333
 333 334
 334 335
 335 336
 336 337
 337 338
 338 339
 339 340
 340 341
 341 342
 342 343
 343 344
 344 345
 345 346
 346 347
 347 348
 348 349
 349 350
 350 351
 351 352
 352 353
 353 354
 354 355
 355 356
 356 357
 357 358
 358 359
 359 360
 360 361
 361 362
 362 363
 363 364
 364 365
 365 366
 366 367
 367 368
 368 369
 369 370
 370 371
 371 372
 372 373
 373 374
 374 375
 375 376
 376 377
 377 378
 378 379
 379 380
 380 381
 381 382
 382 383
 383 384
 384 385
 385 386
 386 387
 387 388
 388 389
 389 390
 390 391
 391 392
 392 393
 393 394
 394 395
 395 396
 396 397
 397 398
 398 399
 399 400
 400 401
 401 402
 402 403
 403 404
 404 405
 405 406
 406 407
 407 408
 408 409
 409 410
 410 411
 411 412
 412 413
 413 414
 414 415
 415 416
 416 417
 417 418
 418 419
 419 420
 420 421
 421 422
 422 423
 423 424
 424 425
 425 426
 426 427
 427 428
 428 429
 429 430
 430 431
 431 432
 432 433
 433 434
 434 435
 435 436
 436 437
 437 438
 438 439
 439 440
 440 441
 441 442
 442 443
 443 444
 444 445
 445 446
 446 447
 447 448
 448 449
 449 450
 450 451
 451 452
 452 453
 453 454
 454 455
 455 456
 456 457
 457 458
 458 459
 459 460
 460 461
 461 462
 462 463
 463 464
 464 465
 465 466
 466 467
 467 468
 468 469
 469 470
 470 471
 471 472
 472 473
 473 474
 474 475
 475 476
 476 477
 477 478
 478 479
 479 480
 480 481
 481 482
 482 483
 483 484
 484 485
 485 486
 486 487
 487 488
 488 489
 489 490
 490 491
 491 492
 492 493
 493 494
 494 495
 495 496
 496 497
 497 498
 498 499
 499   0
